{
	"asset":{
		"generator":"Khronos glTF Blender I/O v3.6.27",
		"version":"2.0"
	},
	"extensionsUsed":[
		"KHR_lights_punctual"
	],
	"extensionsRequired":[
		"KHR_lights_punctual"
	],
	"extensions":{
		"KHR_lights_punctual":{
			"lights":[
				{
					"color":[
						1,
						1,
						1
					],
					"intensity":79.57747154594767,
					"type":"point",
					"name":"Light.001"
				}
			]
		}
	},
	"scene":0,
	"scenes":[
		{
			"name":"Scene",
			"nodes":[
				3,
				4,
				5,
				6,
				7,
				8,
				9,
				10
			]
		}
	],
	"nodes":[
		{
			"mesh":0,
			"name":"Rooster"
		},
		{
			"name":"Headas",
			"rotation":[
				0.08248654007911682,
				-1.36238696768487e-07,
				-7.283405878411031e-09,
				0.9965922236442566
			],
			"translation":[
				-6.781772468565108e-16,
				0.9999998211860657,
				-3.3087224502121107e-23
			]
		},
		{
			"children":[
				1
			],
			"name":"Bone",
			"rotation":[
				-8.557136332854043e-09,
				2.4203236748121526e-08,
				-4.1422078995684666e-16,
				1
			]
		},
		{
			"children":[
				0,
				2
			],
			"name":"Armature"
		},
		{
			"extensions":{
				"KHR_lights_punctual":{
					"light":0
				}
			},
			"name":"Light",
			"rotation":[
				-0.28416627645492554,
				0.7269423007965088,
				0.34203392267227173,
				0.5232754945755005
			],
			"translation":[
				2,
				6,
				4
			]
		},
		{
			"camera":0,
			"name":"Camera",
			"rotation":[
				-0.07088899612426758,
				0,
				0,
				0.9974842071533203
			],
			"translation":[
				0,
				2,
				7
			]
		},
		{
			"mesh":1,
			"name":"Plane"
		},
		{
			"mesh":2,
			"name":"Cube",
			"translation":[
				0,
				1,
				-2
			]
		},
		{
			"mesh":3,
			"name":"Cube.001",
			"rotation":[
				0,
				0.7071067094802856,
				0,
				0.7071068286895752
			],
			"translation":[
				-2,
				1,
				-1
			]
		},
		{
			"mesh":4,
			"name":"Cube.002",
			"rotation":[
				0,
				0.7071067094802856,
				0,
				0.7071068286895752
			],
			"translation":[
				3,
				1,
				-1
			]
		},
		{
			"name":"CameraTarget",
			"translation":[
				0,
				1,
				0
			]
		}
	],
	"cameras":[
		{
			"name":"Camera.001",
			"perspective":{
				"aspectRatio":1.7777777777777777,
				"yfov":0.39959651231765747,
				"zfar":100,
				"znear":0.10000000149011612
			},
			"type":"perspective"
		}
	],
	"materials":[
		{
			"doubleSided":true,
			"name":"Rooster",
			"pbrMetallicRoughness":{
				"baseColorTexture":{
					"index":0
				},
				"metallicFactor":0,
				"roughnessFactor":0.5
			}
		},
		{
			"doubleSided":true,
			"name":"Zalias",
			"pbrMetallicRoughness":{
				"baseColorFactor":[
					0.021872669458389282,
					0.08185900002717972,
					0.01378123089671135,
					1
				],
				"metallicFactor":0,
				"roughnessFactor":0.5
			}
		},
		{
			"doubleSided":true,
			"name":"Material.001",
			"pbrMetallicRoughness":{
				"baseColorFactor":[
					0.5981239080429077,
					0.533265233039856,
					0.8000000715255737,
					1
				],
				"metallicFactor":0,
				"roughnessFactor":0.5
			}
		}
	],
	"meshes":[
		{
			"name":"Rooster",
			"primitives":[
				{
					"attributes":{
						"COLOR_0":0,
						"POSITION":1,
						"NORMAL":2,
						"TEXCOORD_0":3
					},
					"indices":4,
					"material":0
				}
			]
		},
		{
			"name":"Plane",
			"primitives":[
				{
					"attributes":{
						"POSITION":5,
						"NORMAL":6,
						"TEXCOORD_0":7
					},
					"indices":8,
					"material":1
				}
			]
		},
		{
			"name":"Cube.002",
			"primitives":[
				{
					"attributes":{
						"POSITION":9,
						"NORMAL":10,
						"TEXCOORD_0":11
					},
					"indices":12,
					"material":2
				}
			]
		},
		{
			"name":"Cube.003",
			"primitives":[
				{
					"attributes":{
						"POSITION":13,
						"NORMAL":14,
						"TEXCOORD_0":15
					},
					"indices":12,
					"material":2
				}
			]
		},
		{
			"name":"Cube.004",
			"primitives":[
				{
					"attributes":{
						"POSITION":16,
						"NORMAL":17,
						"TEXCOORD_0":18
					},
					"indices":12,
					"material":2
				}
			]
		}
	],
	"textures":[
		{
			"sampler":0,
			"source":0
		}
	],
	"images":[
		{
			"bufferView":5,
			"mimeType":"image/png",
			"name":"Untitled"
		}
	],
	"accessors":[
		{
			"bufferView":0,
			"componentType":5123,
			"count":5994,
			"normalized":true,
			"type":"VEC4"
		},
		{
			"bufferView":1,
			"componentType":5126,
			"count":5994,
			"max":[
				0.785888671875,
				2.499821186065674,
				0.6845703125
			],
			"min":[
				-0.785888671875,
				0.011718747206032276,
				-1.1264829635620117
			],
			"type":"VEC3"
		},
		{
			"bufferView":2,
			"componentType":5126,
			"count":5994,
			"type":"VEC3"
		},
		{
			"bufferView":3,
			"componentType":5126,
			"count":5994,
			"type":"VEC2"
		},
		{
			"bufferView":4,
			"componentType":5123,
			"count":29640,
			"type":"SCALAR"
		},
		{
			"bufferView":6,
			"componentType":5126,
			"count":4,
			"max":[
				10,
				0,
				10
			],
			"min":[
				-10,
				0,
				-10
			],
			"type":"VEC3"
		},
		{
			"bufferView":7,
			"componentType":5126,
			"count":4,
			"type":"VEC3"
		},
		{
			"bufferView":8,
			"componentType":5126,
			"count":4,
			"type":"VEC2"
		},
		{
			"bufferView":9,
			"componentType":5123,
			"count":6,
			"type":"SCALAR"
		},
		{
			"bufferView":10,
			"componentType":5126,
			"count":24,
			"max":[
				2,
				-0.5,
				0
			],
			"min":[
				-2,
				-1,
				-1
			],
			"type":"VEC3"
		},
		{
			"bufferView":11,
			"componentType":5126,
			"count":24,
			"type":"VEC3"
		},
		{
			"bufferView":12,
			"componentType":5126,
			"count":24,
			"type":"VEC2"
		},
		{
			"bufferView":13,
			"componentType":5123,
			"count":36,
			"type":"SCALAR"
		},
		{
			"bufferView":14,
			"componentType":5126,
			"count":24,
			"max":[
				2,
				-0.5,
				0
			],
			"min":[
				-2,
				-1,
				-1
			],
			"type":"VEC3"
		},
		{
			"bufferView":15,
			"componentType":5126,
			"count":24,
			"type":"VEC3"
		},
		{
			"bufferView":16,
			"componentType":5126,
			"count":24,
			"type":"VEC2"
		},
		{
			"bufferView":17,
			"componentType":5126,
			"count":24,
			"max":[
				2,
				-0.5,
				0
			],
			"min":[
				-2,
				-1,
				-1
			],
			"type":"VEC3"
		},
		{
			"bufferView":18,
			"componentType":5126,
			"count":24,
			"type":"VEC3"
		},
		{
			"bufferView":19,
			"componentType":5126,
			"count":24,
			"type":"VEC2"
		}
	],
	"bufferViews":[
		{
			"buffer":0,
			"byteLength":47952,
			"byteOffset":0,
			"target":34962
		},
		{
			"buffer":0,
			"byteLength":71928,
			"byteOffset":47952,
			"target":34962
		},
		{
			"buffer":0,
			"byteLength":71928,
			"byteOffset":119880,
			"target":34962
		},
		{
			"buffer":0,
			"byteLength":47952,
			"byteOffset":191808,
			"target":34962
		},
		{
			"buffer":0,
			"byteLength":59280,
			"byteOffset":239760,
			"target":34963
		},
		{
			"buffer":0,
			"byteLength":57328,
			"byteOffset":299040
		},
		{
			"buffer":0,
			"byteLength":48,
			"byteOffset":356368,
			"target":34962
		},
		{
			"buffer":0,
			"byteLength":48,
			"byteOffset":356416,
			"target":34962
		},
		{
			"buffer":0,
			"byteLength":32,
			"byteOffset":356464,
			"target":34962
		},
		{
			"buffer":0,
			"byteLength":12,
			"byteOffset":356496,
			"target":34963
		},
		{
			"buffer":0,
			"byteLength":288,
			"byteOffset":356508,
			"target":34962
		},
		{
			"buffer":0,
			"byteLength":288,
			"byteOffset":356796,
			"target":34962
		},
		{
			"buffer":0,
			"byteLength":192,
			"byteOffset":357084,
			"target":34962
		},
		{
			"buffer":0,
			"byteLength":72,
			"byteOffset":357276,
			"target":34963
		},
		{
			"buffer":0,
			"byteLength":288,
			"byteOffset":357348,
			"target":34962
		},
		{
			"buffer":0,
			"byteLength":288,
			"byteOffset":357636,
			"target":34962
		},
		{
			"buffer":0,
			"byteLength":192,
			"byteOffset":357924,
			"target":34962
		},
		{
			"buffer":0,
			"byteLength":288,
			"byteOffset":358116,
			"target":34962
		},
		{
			"buffer":0,
			"byteLength":288,
			"byteOffset":358404,
			"target":34962
		},
		{
			"buffer":0,
			"byteLength":192,
			"byteOffset":358692,
			"target":34962
		}
	],
	"samplers":[
		{
			"magFilter":9729,
			"minFilter":9987
		}
	],
	"buffers":[
		{
			"byteLength":358884,
			"uri":"data:application/octet-stream;base64,"
		}
	]
}
